# xmcd
#
# Track frame offsets: 
#        183
#        10883
#        24075
#        37245
#        50720
#        64178
#        75845
#        89250
#        103968
#        116498
#        127863
#        140798
#        153825
#        166293
#        179000
#        192883
#        206915
#        218685
#        229428
#        239115
#        254115
#        264670
#
# Disc length: 3784 seconds
#
# Revision: 2
# Processed by: cddbd v1.5.2PL0 Copyright (c) Steve Scherf et al.
# Submitted via: ExactAudioCopy v1.0b3
#
DISCID=460ec616
DTITLE=Etta James - Back In Blues
DYEAR=1991
DGENRE=Blues
TTITLE0=Tell Mama
TTITLE1=Pushover
TTITLE2=All I Could Do Was Cry
TTITLE3=My Dearest Darling
TTITLE4=At Last
TTITLE5=I'd Rather Go Blind
TTITLE6=Trust In Me
TTITLE7=Sunday Kind of Love
TTITLE8=Something's Got a Hold On Me
TTITLE9=Stop the Wedding
TTITLE10=Security
TTITLE11=Fool That I Am
TTITLE12=If I Can't Have You
TTITLE13=Spoonful
TTITLE14=I Just Want to Make Love With You
TTITLE15=Stormy Weather
TTITLE16=Anything to Say You're Mine
TTITLE17=Tough Mary
TTITLE18=Waiting for Good Time Charlie to Come Home
TTITLE19=Only Time Will Tell
TTITLE20=Girl Out of My Dreams
TTITLE21=OUt On the Street Again
EXTD=Compilation , licensed from Red Dog Express.
EXTT0=
EXTT1=
EXTT2=
EXTT3=
EXTT4=
EXTT5=
EXTT6=
EXTT7=
EXTT8=
EXTT9=
EXTT10=
EXTT11=
EXTT12=
EXTT13=
EXTT14=
EXTT15=
EXTT16=
EXTT17=
EXTT18=
EXTT19=
EXTT20=
EXTT21=
PLAYORDER=
